<svg  fill="white"  id="Capa_1" enable-background="new 0 0 512 512" height="512" viewBox="0 0 512 512" width="512" xmlns="http://www.w3.org/2000/svg"><g><g id="Page-1_14_"><g id="_x30_15---Forex-Dollar-Euro"><path id="Shape_60_" d="m374.857 237.714c-75.742 0-137.143 61.401-137.143 137.143s61.401 137.143 137.143 137.143 137.143-61.401 137.143-137.143c-.086-75.706-61.436-137.057-137.143-137.143zm0 109.715c5.049 0 9.143 4.093 9.143 9.143 0 5.049-4.093 9.143-9.143 9.143h-54.235c-.829 6.067-.829 12.219 0 18.286h54.235c5.049 0 9.143 4.093 9.143 9.143 0 5.049-4.093 9.143-9.143 9.143h-49.49c7.49 21.146 27.077 35.62 49.49 36.571 17.16-.311 33.049-9.114 42.414-23.497 1.813-2.802 5.009-4.393 8.338-4.152s6.261 2.278 7.651 5.312 1.016 6.585-.976 9.263c-12.741 19.348-34.262 31.1-57.426 31.36-32.481-1.264-60.376-23.482-68.873-54.857h-22.555c-5.049 0-9.143-4.093-9.143-9.143 0-5.049 4.093-9.143 9.143-9.143h18.761c-.293-3.008-.475-6.053-.475-9.143s.183-6.135.475-9.143h-18.761c-5.049 0-9.143-4.093-9.143-9.143 0-5.049 4.093-9.143 9.143-9.143h22.555c8.498-31.375 36.392-53.593 68.873-54.857 23.164.26 44.686 12.013 57.426 31.36 1.992 2.678 2.366 6.229.976 9.263s-4.322 5.07-7.651 5.312-6.524-1.35-8.338-4.152c-9.365-14.384-25.253-23.186-42.414-23.497-22.413.951-42 15.425-49.49 36.571z"/><path id="Shape_59_" d="m173.714 173.714c0-12.745-11.703-23.387-27.429-26.45v52.901c15.726-3.063 27.429-13.706 27.429-26.451z"/><path id="Shape_58_" d="m128 74.121c-15.726 3.063-27.429 13.714-27.429 26.45s11.703 23.387 27.429 26.45z"/><path id="Shape_57_" d="m137.143 274.286c75.742 0 137.143-61.401 137.143-137.143s-61.401-137.143-137.143-137.143-137.143 61.401-137.143 137.143c.086 75.706 61.436 137.057 137.143 137.143zm-54.857-173.715c0-22.601 19.813-41.381 45.714-45.029v-18.971c0-5.049 4.093-9.143 9.143-9.143s9.143 4.093 9.143 9.143v18.971c25.901 3.658 45.714 22.428 45.714 45.029 0 5.049-4.093 9.143-9.143 9.143s-9.143-4.093-9.143-9.143c0-12.745-11.703-23.387-27.429-26.45v54.565c25.902 3.657 45.715 22.427 45.715 45.028s-19.813 41.381-45.714 45.029v18.971c0 5.049-4.093 9.143-9.143 9.143s-9.143-4.093-9.143-9.143v-18.971c-25.902-3.657-45.714-22.427-45.714-45.029 0-5.049 4.093-9.143 9.143-9.143s9.143 4.093 9.143 9.143c0 12.745 11.703 23.387 27.429 26.45v-54.564c-25.903-3.648-45.715-22.427-45.715-45.029z"/><path id="Shape_56_" d="m374.857 219.429c6.114.026 12.22.423 18.286 1.189v-147.475c0-5.049 4.093-9.143 9.143-9.143h7.259c3.567.001 6.809-2.073 8.303-5.312s.969-7.051-1.346-9.765l-34.614-40.603c-1.737-2.031-4.276-3.201-6.949-3.201s-5.212 1.169-6.949 3.201l-34.743 40.594c-2.31 2.701-2.846 6.496-1.374 9.731s4.686 5.323 8.24 5.355h7.314c5.049 0 9.143 4.093 9.143 9.143v147.474c6.067-.766 12.173-1.163 18.287-1.188z"/><path id="Shape_55_" d="m137.143 292.571c-6.114-.026-12.22-.423-18.286-1.189v147.474c0 5.049-4.093 9.143-9.143 9.143h-7.259c-3.567-.001-6.809 2.073-8.303 5.312-1.495 3.239-.969 7.051 1.346 9.765l34.615 40.594c1.737 2.031 4.276 3.201 6.949 3.201s5.212-1.169 6.949-3.201l34.789-40.594c2.31-2.707 2.838-6.509 1.355-9.744s-4.709-5.315-8.267-5.332h-7.314c-5.049 0-9.143-4.093-9.143-9.143v-147.474c-6.068.766-12.174 1.163-18.288 1.188z"/></g></g></g></svg>